<svg xmlns="http://www.w3.org/2000/svg" xml:space="preserve" style="enable-background:new 0 0 20.07 20.07" viewBox="0 0 20.07 20.07"><path d="M20.07 10.102s-.719-1.593-5.363-1.53c0 0-4.626-4.644-13.986.582 0 0 .205 1.018-.566 1.018-.159.765-.322 1.769.203 2.294h1.266a1.722 1.722 0 1 1 3.356 0h9.744a1.722 1.722 0 0 1 1.678-2.103c1.297 0 2.037 1.318 1.906 2.092l1.762-.182c-.269-1.586 0-2.171 0-2.171zM6.936 8.835H2.829s1.703-.798 4.107-1.261v1.261zm.891 0V7.427c3.442-.498 6.143 1.408 6.143 1.408H7.827z" style="fill:#030104"/><path d="M16.402 10.742a1.33 1.33 0 0 0 0 2.659c.734 0 1.514-.596 1.514-1.329 0-.736-.779-1.33-1.514-1.33zm0 1.84a.511.511 0 1 1-.001-1.023.511.511 0 0 1 .001 1.023zM3.268 10.742a1.33 1.33 0 1 0 0 2.658 1.33 1.33 0 0 0 0-2.658zm0 1.84a.512.512 0 1 1 0-1.024.512.512 0 0 1 0 1.024z" style="fill:#030104"/></svg>